User Type,Username,Date,Text
,Wovoka_paiute,2012-06-04T23:08Z,"General
Complete name                    : Anno_domini_1573_1.avi
Format                           : AVI
Format/Info                      : Audio Video Interleave
File size                        : 528 MiB
Duration                         : 54mn 19s
Overall bit rate                 : 1 359 Kbps
Movie name                       : DVD_VOLUME.Title1.DVDRip
Writing application              : Lavf52.17.0
Original source form/Name        : DVD_VOLUME

Video
ID                               : 0
Format                           : MPEG-4 Visual
Format profile                   : Simple@L3
Format settings, BVOP            : No
Format settings, QPel            : No
Format settings, GMC             : No warppoints
Format settings, Matrix          : Default (H.263)
Codec ID                         : XVID
Codec ID/Hint                    : XviD
Duration                         : 54mn 19s
Bit rate                         : 1 092 Kbps
Width                            : 704 pixels
Height                           : 514 pixels
Display aspect ratio             : 1.370
Frame rate                       : 25.000 fps
Color space                      : YUV
Chroma subsampling               : 4:2:0
Bit depth                        : 8 bits
Scan type                        : Progressive
Compression mode                 : Lossy
Bits/(Pixel*Frame)               : 0.121
Stream size                      : 424 MiB (80%)
Writing library                  : XviD 1.1.2 (UTC 2006-11-01)

Audio
ID                               : 1
Format                           : AC-3
Format/Info                      : Audio Coding 3
Mode extension                   : CM (complete main)
Codec ID                         : 2000
Duration                         : 54mn 19s
Bit rate mode                    : Constant
Bit rate                         : 256 Kbps
Channel(s)                       : 2 channels
Channel positions                : Front: L R
Sampling rate                    : 48.0 KHz
Bit depth                        : 16 bits
Compression mode                 : Lossy
Stream size                      : 99.5 MiB (19%)
Alignment                        : Aligned on interleaves
Interleave, duration             : 32 ms (0.80 video frame)
Interleave, preload duration     : 32 ms"
,Wovoka_paiute,2012-06-04T23:10Z,"Complete name                    : Anno_domini_1573_2.avi
Format                           : AVI
Format/Info                      : Audio Video Interleave
File size                        : 537 MiB
Duration                         : 51mn 23s
Overall bit rate                 : 1 461 Kbps
Movie name                       : DVD_VOLUME.Title1.DVDRip
Writing application              : Lavf52.17.0
Original source form/Name        : DVD_VOLUME

Video
ID                               : 0
Format                           : MPEG-4 Visual
Format profile                   : Simple@L3
Format settings, BVOP            : No
Format settings, QPel            : No
Format settings, GMC             : No warppoints
Format settings, Matrix          : Default (H.263)
Codec ID                         : XVID
Codec ID/Hint                    : XviD
Duration                         : 51mn 23s
Bit rate                         : 1 194 Kbps
Width                            : 704 pixels
Height                           : 518 pixels
Display aspect ratio             : 4:3
Frame rate                       : 25.000 fps
Color space                      : YUV
Chroma subsampling               : 4:2:0
Bit depth                        : 8 bits
Scan type                        : Progressive
Compression mode                 : Lossy
Bits/(Pixel*Frame)               : 0.131
Stream size                      : 439 MiB (82%)
Writing library                  : XviD 1.1.2 (UTC 2006-11-01)

Audio
ID                               : 1
Format                           : AC-3
Format/Info                      : Audio Coding 3
Mode extension                   : CM (complete main)
Codec ID                         : 2000
Duration                         : 51mn 23s
Bit rate mode                    : Constant
Bit rate                         : 256 Kbps
Channel(s)                       : 2 channels
Channel positions                : Front: L R
Sampling rate                    : 48.0 KHz
Bit depth                        : 16 bits
Compression mode                 : Lossy
Stream size                      : 94.1 MiB (18%)
Alignment                        : Aligned on interleaves
Interleave, duration             : 32 ms (0.80 video frame)
Interleave, preload duration     : 32 ms"
,Wovoka_paiute,2012-06-05T08:45Z,"Complete name                    : Anno_domini_1573_3.avi
Format                           : AVI
Format/Info                      : Audio Video Interleave
File size                        : 523 MiB
Duration                         : 50mn 5s
Overall bit rate                 : 1 460 Kbps
Movie name                       : DVD_VOLUME.Title1.DVDRip
Writing application              : Lavf52.17.0
Original source form/Name        : DVD_VOLUME

Video
ID                               : 0
Format                           : MPEG-4 Visual
Format profile                   : Simple@L3
Format settings, BVOP            : No
Format settings, QPel            : No
Format settings, GMC             : No warppoints
Format settings, Matrix          : Default (H.263)
Codec ID                         : XVID
Codec ID/Hint                    : XviD
Duration                         : 50mn 5s
Bit rate                         : 1 193 Kbps
Width                            : 704 pixels
Height                           : 514 pixels
Display aspect ratio             : 1.370
Frame rate                       : 25.000 fps
Color space                      : YUV
Chroma subsampling               : 4:2:0
Bit depth                        : 8 bits
Scan type                        : Progressive
Compression mode                 : Lossy
Bits/(Pixel*Frame)               : 0.132
Stream size                      : 427 MiB (82%)
Writing library                  : XviD 1.1.2 (UTC 2006-11-01)

Audio
ID                               : 1
Format                           : AC-3
Format/Info                      : Audio Coding 3
Mode extension                   : CM (complete main)
Codec ID                         : 2000
Duration                         : 50mn 5s
Bit rate mode                    : Constant
Bit rate                         : 256 Kbps
Channel(s)                       : 2 channels
Channel positions                : Front: L R
Sampling rate                    : 48.0 KHz
Bit depth                        : 16 bits
Compression mode                 : Lossy
Stream size                      : 91.7 MiB (18%)
Alignment                        : Aligned on interleaves
Interleave, duration             : 32 ms (0.80 video frame)
Interleave, preload duration     : 32 ms"
,Wovoka_paiute,2012-06-05T08:46Z,"Complete name                    : Anno_domini_1573_4.avi
Format                           : AVI
Format/Info                      : Audio Video Interleave
File size                        : 642 MiB
Duration                         : 1h 6mn
Overall bit rate                 : 1 360 Kbps
Movie name                       : DVD_VOLUME.Title1.DVDRip
Writing application              : Lavf52.17.0
Original source form/Name        : DVD_VOLUME

Video
ID                               : 0
Format                           : MPEG-4 Visual
Format profile                   : Simple@L3
Format settings, BVOP            : No
Format settings, QPel            : No
Format settings, GMC             : No warppoints
Format settings, Matrix          : Default (H.263)
Codec ID                         : XVID
Codec ID/Hint                    : XviD
Duration                         : 1h 6mn
Bit rate                         : 1 093 Kbps
Width                            : 704 pixels
Height                           : 514 pixels
Display aspect ratio             : 1.370
Frame rate                       : 25.000 fps
Color space                      : YUV
Chroma subsampling               : 4:2:0
Bit depth                        : 8 bits
Scan type                        : Progressive
Compression mode                 : Lossy
Bits/(Pixel*Frame)               : 0.121
Stream size                      : 516 MiB (80%)
Writing library                  : XviD 1.1.2 (UTC 2006-11-01)

Audio
ID                               : 1
Format                           : AC-3
Format/Info                      : Audio Coding 3
Mode extension                   : CM (complete main)
Codec ID                         : 2000
Duration                         : 1h 5mn
Bit rate mode                    : Constant
Bit rate                         : 256 Kbps
Channel(s)                       : 2 channels
Channel positions                : Front: L R
Sampling rate                    : 48.0 KHz
Bit depth                        : 16 bits
Compression mode                 : Lossy
Stream size                      : 121 MiB (19%)
Alignment                        : Aligned on interleaves
Interleave, duration             : 32 ms (0.80 video frame)"
